c<svg width="509" height="245" viewBox="0 0 509 245" fill="none" xmlns="http://www.w3.org/2000/svg">
<path d="M508 214H1V244H508V214Z" fill="black" stroke="black" stroke-width="2"/>
<path d="M166 47H24C11.2975 47 1 57.2974 1 70V224H189V70C189 57.2974 178.703 47 166 47Z" fill="#0031DF" stroke="black" stroke-width="2"/>
<path d="M212.341 1H70.3415C57.6389 1 47.3415 11.2974 47.3415 24V220.887H235.341V24C235.341 11.2975 225.044 1 212.341 1Z" fill="#FDCD21" stroke="black" stroke-width="2"/>
<path d="M263.276 39.7214H127.403C118.391 39.7214 114.122 39.7338 110.696 40.8471C103.693 43.1222 98.2037 48.612 95.9286 55.614C94.8153 59.0406 94.8029 63.3095 94.8029 72.3214V223.025H295.876V72.3214C295.876 63.3095 295.864 59.0406 294.751 55.614C292.475 48.612 286.986 43.1222 279.984 40.8471C276.557 39.7338 272.288 39.7214 263.276 39.7214Z" fill="#FB993E" stroke="black" stroke-width="2"/>
<path d="M263.4 10H186.6C177.588 10 173.319 10.0123 169.893 11.1257C162.891 13.4008 157.401 18.8905 155.126 25.8926C154.012 29.3192 154 33.588 154 42.6V221H296V42.6C296 33.588 295.988 29.3192 294.874 25.8926C292.599 18.8905 287.109 13.4008 280.107 11.1257C276.681 10.0123 272.412 10 263.4 10Z" fill="#F71E52" stroke="black" stroke-width="2"/>
<path d="M346.4 47.2263H237.502C228.49 47.2263 224.222 47.2387 220.795 48.352C213.793 50.6271 208.303 56.1169 206.028 63.1189C204.915 66.5455 204.902 70.8143 204.902 79.8263V220.887H379V79.8264C379 70.8143 378.987 66.5455 377.874 63.1189C375.599 56.1169 370.109 50.6271 363.107 48.352C359.681 47.2387 355.412 47.2263 346.4 47.2263Z" fill="#009D19" stroke="black" stroke-width="2"/>
<path d="M378.4 47H298.6C289.588 47 285.319 47.0123 281.893 48.1257C274.891 50.4008 269.401 55.8905 267.126 62.8926C266.012 66.3192 266 70.588 266 79.6V221H411V79.6C411 70.588 410.988 66.3192 409.874 62.8926C407.599 55.8905 402.109 50.4008 395.107 48.1257C391.681 47.0123 387.412 47 378.4 47Z" fill="#FCFFE8" stroke="black" stroke-width="2"/>
<path d="M428.4 10H351.6C342.588 10 338.319 10.0123 334.893 11.1257C327.891 13.4008 322.401 18.8905 320.126 25.8926C319.012 29.3192 319 33.588 319 42.6V221H461V42.6C461 33.588 460.988 29.3192 459.874 25.8926C457.599 18.8905 452.109 13.4008 445.107 11.1257C441.681 10.0123 437.412 10 428.4 10Z" fill="#D02500" stroke="black" stroke-width="2"/>
<path d="M475.4 79H398.6C389.588 79 385.319 79.0123 381.893 80.1257C374.891 82.4008 369.401 87.8905 367.126 94.8926C366.012 98.3192 366 102.588 366 111.6V221H508V111.6C508 102.588 507.988 98.3192 506.874 94.8926C504.599 87.8905 499.109 82.4008 492.107 80.1257C488.681 79.0123 484.412 79 475.4 79Z" fill="#C4C4C4" stroke="black" stroke-width="2"/>
</svg>
