<svg width="229" height="118" viewBox="0 0 229 118" fill="none" xmlns="http://www.w3.org/2000/svg">
<path d="M108.283 43.8877C108.283 31.1851 97.986 20.8877 85.2834 20.8877H25C12.2974 20.8877 1.99997 31.1851 1.99997 43.8877V110.371H108.283V43.8877Z" stroke="#2D2828" stroke-width="2"/>
<path d="M177.813 24C177.813 11.2974 167.516 1 154.813 1H79.7118C67.0092 1 56.7118 11.2975 56.7118 24V110.371H177.813V24Z" stroke="#2D2828" stroke-width="2"/>
<path d="M219.987 39.9102C219.987 27.2076 209.689 16.9102 196.987 16.9102H134.423C121.721 16.9102 111.423 27.2076 111.423 39.9102V110.371H219.987V39.9102Z" stroke="#2D2828" stroke-width="2"/>
<path d="M193 57C193 44.2975 182.703 34 170 34H46C33.2975 34 23 44.2975 23 57V101H173.756C184.384 101 193 92.3843 193 81.7564V57Z" fill="#2D2828" stroke="#2D2828" stroke-width="2"/>
<path d="M190 52C190 39.2975 179.703 29 167 29H43C30.2975 29 20 39.2975 20 52V97H170.756C181.384 97 190 88.3843 190 77.7564V52Z" fill="white" stroke="#2D2828" stroke-width="2"/>
<path d="M50.028 45.468C50.028 46.4387 49.794 47.3487 49.326 48.198C48.8753 49.0473 48.156 49.732 47.168 50.252C46.1973 50.772 44.9667 51.032 43.476 51.032H40.434V58H36.794V39.852H43.476C44.88 39.852 46.076 40.0947 47.064 40.58C48.052 41.0653 48.7887 41.7327 49.274 42.582C49.7767 43.4313 50.028 44.3933 50.028 45.468ZM43.32 48.094C44.3253 48.094 45.0707 47.8687 45.556 47.418C46.0413 46.95 46.284 46.3 46.284 45.468C46.284 43.7 45.296 42.816 43.32 42.816H40.434V48.094H43.32ZM56.2524 45.832C56.7204 45.0693 57.327 44.4713 58.0724 44.038C58.835 43.6047 59.7017 43.388 60.6724 43.388V47.21H59.7104C58.5664 47.21 57.6997 47.4787 57.1104 48.016C56.5384 48.5533 56.2524 49.4893 56.2524 50.824V58H52.6124V43.596H56.2524V45.832ZM62.1881 50.746C62.1881 49.29 62.4741 47.9987 63.0461 46.872C63.6354 45.7453 64.4241 44.8787 65.4121 44.272C66.4174 43.6653 67.5354 43.362 68.7661 43.362C69.8407 43.362 70.7767 43.5787 71.5741 44.012C72.3887 44.4453 73.0387 44.9913 73.5241 45.65V43.596H77.1901V58H73.5241V55.894C73.0561 56.57 72.4061 57.1333 71.5741 57.584C70.7594 58.0173 69.8147 58.234 68.7401 58.234C67.5267 58.234 66.4174 57.922 65.4121 57.298C64.4241 56.674 63.6354 55.7987 63.0461 54.672C62.4741 53.528 62.1881 52.2193 62.1881 50.746ZM73.5241 50.798C73.5241 49.914 73.3507 49.16 73.0041 48.536C72.6574 47.8947 72.1894 47.4093 71.6001 47.08C71.0107 46.7333 70.3781 46.56 69.7021 46.56C69.0261 46.56 68.4021 46.7247 67.8301 47.054C67.2581 47.3833 66.7901 47.8687 66.4261 48.51C66.0794 49.134 65.9061 49.8793 65.9061 50.746C65.9061 51.6127 66.0794 52.3753 66.4261 53.034C66.7901 53.6753 67.2581 54.1693 67.8301 54.516C68.4194 54.8627 69.0434 55.036 69.7021 55.036C70.3781 55.036 71.0107 54.8713 71.6001 54.542C72.1894 54.1953 72.6574 53.71 73.0041 53.086C73.3507 52.4447 73.5241 51.682 73.5241 50.798ZM84.0732 55.01H90.4952V58H79.9392V55.062L86.2312 46.586H79.9652V43.596H90.4172V46.534L84.0732 55.01ZM89.1432 40.476L85.2952 42.582L81.4212 40.476V37.824L85.2952 40.06L89.1432 37.824V40.476ZM98.8255 58.234C97.6469 58.234 96.5895 58.026 95.6535 57.61C94.7175 57.1767 93.9722 56.596 93.4175 55.868C92.8802 55.14 92.5855 54.334 92.5335 53.45H96.1995C96.2689 54.0047 96.5375 54.464 97.0055 54.828C97.4909 55.192 98.0889 55.374 98.7995 55.374C99.4929 55.374 100.03 55.2353 100.412 54.958C100.81 54.6807 101.01 54.3253 101.01 53.892C101.01 53.424 100.767 53.0773 100.282 52.852C99.8135 52.6093 99.0595 52.3493 98.0195 52.072C96.9449 51.812 96.0609 51.5433 95.3675 51.266C94.6915 50.9887 94.1022 50.564 93.5995 49.992C93.1142 49.42 92.8715 48.6487 92.8715 47.678C92.8715 46.8807 93.0969 46.1527 93.5475 45.494C94.0155 44.8353 94.6742 44.3153 95.5235 43.934C96.3902 43.5527 97.4042 43.362 98.5655 43.362C100.282 43.362 101.651 43.7953 102.674 44.662C103.696 45.5113 104.26 46.664 104.364 48.12H100.88C100.828 47.548 100.585 47.0973 100.152 46.768C99.7355 46.4213 99.1722 46.248 98.4615 46.248C97.8029 46.248 97.2915 46.3693 96.9275 46.612C96.5809 46.8547 96.4075 47.1927 96.4075 47.626C96.4075 48.1113 96.6502 48.484 97.1355 48.744C97.6209 48.9867 98.3749 49.238 99.3975 49.498C100.438 49.758 101.296 50.0267 101.972 50.304C102.648 50.5813 103.228 51.0147 103.714 51.604C104.216 52.176 104.476 52.9387 104.494 53.892C104.494 54.724 104.26 55.4693 103.792 56.128C103.341 56.7867 102.682 57.3067 101.816 57.688C100.966 58.052 99.9695 58.234 98.8255 58.234ZM116.01 58L111.122 51.864V58H107.482V38.76H111.122V49.706L115.958 43.596H120.69L114.346 50.824L120.742 58H116.01ZM136.055 50.486C136.055 51.006 136.02 51.474 135.951 51.89H125.421C125.508 52.93 125.872 53.7447 126.513 54.334C127.154 54.9233 127.943 55.218 128.879 55.218C130.231 55.218 131.193 54.6373 131.765 53.476H135.691C135.275 54.8627 134.478 56.0067 133.299 56.908C132.12 57.792 130.673 58.234 128.957 58.234C127.57 58.234 126.322 57.9307 125.213 57.324C124.121 56.7 123.263 55.8247 122.639 54.698C122.032 53.5713 121.729 52.2713 121.729 50.798C121.729 49.3073 122.032 47.9987 122.639 46.872C123.246 45.7453 124.095 44.8787 125.187 44.272C126.279 43.6653 127.536 43.362 128.957 43.362C130.326 43.362 131.548 43.6567 132.623 44.246C133.715 44.8353 134.556 45.676 135.145 46.768C135.752 47.8427 136.055 49.082 136.055 50.486ZM132.285 49.446C132.268 48.51 131.93 47.7647 131.271 47.21C130.612 46.638 129.806 46.352 128.853 46.352C127.952 46.352 127.189 46.6293 126.565 47.184C125.958 47.7213 125.586 48.4753 125.447 49.446H132.285ZM131.739 39.8L125.759 42.53V39.93L131.739 36.836V39.8ZM45.322 87L40.434 80.864V87H36.794V67.76H40.434V78.706L45.27 72.596H50.002L43.658 79.824L50.054 87H45.322ZM58.3736 87.234C56.9869 87.234 55.7389 86.9307 54.6296 86.324C53.5203 85.7 52.6449 84.8247 52.0036 83.698C51.3796 82.5713 51.0676 81.2713 51.0676 79.798C51.0676 78.3247 51.3883 77.0247 52.0296 75.898C52.6883 74.7713 53.5809 73.9047 54.7076 73.298C55.8343 72.674 57.0909 72.362 58.4776 72.362C59.8643 72.362 61.1209 72.674 62.2476 73.298C63.3743 73.9047 64.2583 74.7713 64.8996 75.898C65.5583 77.0247 65.8876 78.3247 65.8876 79.798C65.8876 81.2713 65.5496 82.5713 64.8736 83.698C64.2149 84.8247 63.3136 85.7 62.1696 86.324C61.0429 86.9307 59.7776 87.234 58.3736 87.234ZM58.3736 84.062C59.0323 84.062 59.6476 83.906 60.2196 83.594C60.8089 83.2647 61.2769 82.7793 61.6236 82.138C61.9703 81.4967 62.1436 80.7167 62.1436 79.798C62.1436 78.4287 61.7796 77.38 61.0516 76.652C60.3409 75.9067 59.4656 75.534 58.4256 75.534C57.3856 75.534 56.5103 75.9067 55.7996 76.652C55.1063 77.38 54.7596 78.4287 54.7596 79.798C54.7596 81.1673 55.0976 82.2247 55.7736 82.97C56.4669 83.698 57.3336 84.062 58.3736 84.062ZM76.5397 72.388C78.2557 72.388 79.6423 72.934 80.6997 74.026C81.757 75.1007 82.2857 76.6087 82.2857 78.55V87H78.6457V79.044C78.6457 77.9 78.3597 77.0247 77.7877 76.418C77.2157 75.794 76.4357 75.482 75.4477 75.482C74.4423 75.482 73.645 75.794 73.0557 76.418C72.4837 77.0247 72.1977 77.9 72.1977 79.044V87H68.5577V72.596H72.1977V74.39C72.683 73.766 73.2983 73.2807 74.0437 72.934C74.8063 72.57 75.6383 72.388 76.5397 72.388ZM89.9851 75.586V82.554C89.9851 83.0393 90.0978 83.3947 90.3231 83.62C90.5658 83.828 90.9645 83.932 91.5191 83.932H93.2091V87H90.9211C87.8531 87 86.3191 85.5093 86.3191 82.528V75.586H84.6031V72.596H86.3191V69.034H89.9851V72.596H93.2091V75.586H89.9851ZM109.217 79.486C109.217 80.006 109.183 80.474 109.113 80.89H98.5832C98.6699 81.93 99.0339 82.7447 99.6752 83.334C100.317 83.9233 101.105 84.218 102.041 84.218C103.393 84.218 104.355 83.6373 104.927 82.476H108.853C108.437 83.8627 107.64 85.0067 106.461 85.908C105.283 86.792 103.835 87.234 102.119 87.234C100.733 87.234 99.4845 86.9307 98.3752 86.324C97.2832 85.7 96.4252 84.8247 95.8012 83.698C95.1945 82.5713 94.8912 81.2713 94.8912 79.798C94.8912 78.3073 95.1945 76.9987 95.8012 75.872C96.4079 74.7453 97.2572 73.8787 98.3492 73.272C99.4412 72.6653 100.698 72.362 102.119 72.362C103.489 72.362 104.711 72.6567 105.785 73.246C106.877 73.8353 107.718 74.676 108.307 75.768C108.914 76.8427 109.217 78.082 109.217 79.486ZM105.447 78.446C105.43 77.51 105.092 76.7647 104.433 76.21C103.775 75.638 102.969 75.352 102.015 75.352C101.114 75.352 100.351 75.6293 99.7272 76.184C99.1205 76.7213 98.7479 77.4753 98.6092 78.446H105.447ZM113.72 70.88C113.061 70.88 112.515 70.6807 112.082 70.282C111.666 69.866 111.458 69.3547 111.458 68.748C111.458 68.1413 111.666 67.6387 112.082 67.24C112.515 66.824 113.061 66.616 113.72 66.616C114.361 66.616 114.89 66.824 115.306 67.24C115.722 67.6387 115.93 68.1413 115.93 68.748C115.93 69.3547 115.722 69.866 115.306 70.282C114.89 70.6807 114.361 70.88 113.72 70.88ZM115.514 89.366C115.514 90.9607 115.115 92.1047 114.318 92.798C113.538 93.5087 112.411 93.864 110.938 93.864H109.326V90.77H110.366C110.921 90.77 111.311 90.6573 111.536 90.432C111.761 90.224 111.874 89.8773 111.874 89.392V72.596H115.514V89.366ZM127.092 72.388C128.808 72.388 130.195 72.934 131.252 74.026C132.31 75.1007 132.838 76.6087 132.838 78.55V87H129.198V79.044C129.198 77.9 128.912 77.0247 128.34 76.418C127.768 75.794 126.988 75.482 126 75.482C124.995 75.482 124.198 75.794 123.608 76.418C123.036 77.0247 122.75 77.9 122.75 79.044V87H119.11V72.596H122.75V74.39C123.236 73.766 123.851 73.2807 124.596 72.934C125.359 72.57 126.191 72.388 127.092 72.388ZM149.69 79.486C149.69 80.006 149.655 80.474 149.586 80.89H139.056C139.143 81.93 139.507 82.7447 140.148 83.334C140.789 83.9233 141.578 84.218 142.514 84.218C143.866 84.218 144.828 83.6373 145.4 82.476H149.326C148.91 83.8627 148.113 85.0067 146.934 85.908C145.755 86.792 144.308 87.234 142.592 87.234C141.205 87.234 139.957 86.9307 138.848 86.324C137.756 85.7 136.898 84.8247 136.274 83.698C135.667 82.5713 135.364 81.2713 135.364 79.798C135.364 78.3073 135.667 76.9987 136.274 75.872C136.881 74.7453 137.73 73.8787 138.822 73.272C139.914 72.6653 141.171 72.362 142.592 72.362C143.961 72.362 145.183 72.6567 146.258 73.246C147.35 73.8353 148.191 74.676 148.78 75.768C149.387 76.8427 149.69 78.082 149.69 79.486ZM145.92 78.446C145.903 77.51 145.565 76.7647 144.906 76.21C144.247 75.638 143.441 75.352 142.488 75.352C141.587 75.352 140.824 75.6293 140.2 76.184C139.593 76.7213 139.221 77.4753 139.082 78.446H145.92ZM155.987 74.832C156.455 74.0693 157.061 73.4713 157.807 73.038C158.569 72.6047 159.436 72.388 160.407 72.388V76.21H159.445C158.301 76.21 157.434 76.4787 156.845 77.016C156.273 77.5533 155.987 78.4893 155.987 79.824V87H152.347V72.596H155.987V74.832ZM176.638 72.596L167.72 93.812H163.846L166.966 86.636L161.194 72.596H165.276L168.994 82.658L172.764 72.596H176.638Z" fill="#2D2828"/>
</svg>
